<mxfile host="app.diagrams.net" modified="2024-04-23T03:30:56.060Z" agent="Mozilla/5.0 (Windows NT 10.0; Win64; x64) AppleWebKit/537.36 (KHTML, like Gecko) Chrome/124.0.0.0 Safari/537.36" etag="klu2cjwFgqmIESRCSU7S" version="24.2.7" type="device">
  <diagram name="Page-1" id="yFdlPBqMGaqrd9fegogX">
    <mxGraphModel dx="650" dy="870" grid="1" gridSize="10" guides="1" tooltips="1" connect="1" arrows="1" fold="1" page="1" pageScale="1" pageWidth="850" pageHeight="1100" background="#000000" math="0" shadow="0">
      <root>
        <mxCell id="0" />
        <mxCell id="1" parent="0" />
        <mxCell id="mvtlcdeYdffsvFCyJHWg-12" style="edgeStyle=orthogonalEdgeStyle;rounded=0;orthogonalLoop=1;jettySize=auto;html=1;exitX=0.5;exitY=1;exitDx=0;exitDy=0;exitPerimeter=0;entryX=0.5;entryY=0;entryDx=0;entryDy=0;strokeColor=#FFFFFF;strokeWidth=3;" edge="1" parent="1" source="mvtlcdeYdffsvFCyJHWg-1" target="mvtlcdeYdffsvFCyJHWg-3">
          <mxGeometry relative="1" as="geometry" />
        </mxCell>
        <mxCell id="mvtlcdeYdffsvFCyJHWg-1" value="&lt;span style=&quot;color: rgb(255, 255, 255); font-size: 16px; text-wrap: wrap;&quot;&gt;Execute Delete Journal Function&lt;/span&gt;" style="verticalLabelPosition=middle;verticalAlign=middle;html=1;shape=mxgraph.flowchart.on-page_reference;fillColor=none;strokeColor=#FFFFFF;strokeWidth=10;labelPosition=center;align=center;fontSize=16;" vertex="1" parent="1">
          <mxGeometry x="1220" y="10" width="110" height="110" as="geometry" />
        </mxCell>
        <mxCell id="mvtlcdeYdffsvFCyJHWg-2" style="edgeStyle=orthogonalEdgeStyle;rounded=0;orthogonalLoop=1;jettySize=auto;html=1;exitX=0.5;exitY=1;exitDx=0;exitDy=0;entryX=0.5;entryY=0;entryDx=0;entryDy=0;strokeWidth=3;strokeColor=#FFFFFF;" edge="1" parent="1" source="mvtlcdeYdffsvFCyJHWg-3" target="mvtlcdeYdffsvFCyJHWg-6">
          <mxGeometry relative="1" as="geometry" />
        </mxCell>
        <mxCell id="mvtlcdeYdffsvFCyJHWg-3" value="&lt;div style=&quot;display: flex; justify-content: center; text-align: center; align-items: baseline; line-height: 1.25; margin-top: -2px;&quot;&gt;&lt;font style=&quot;&quot;&gt;&lt;font style=&quot;font-size: 18px;&quot;&gt;Execute Delete Journal Function&lt;/font&gt;&lt;/font&gt;&lt;/div&gt;" style="html=1;overflow=block;blockSpacing=1;whiteSpace=wrap;fontSize=13;spacing=3.8;strokeColor=#006EAF;rounded=1;absoluteArcSize=1;arcSize=9;fillColor=#1ba1e2;strokeWidth=NaN;lucidId=W1av~T7v6o5Q;fontColor=#ffffff;" vertex="1" parent="1">
          <mxGeometry x="1201.6" y="180" width="147" height="90" as="geometry" />
        </mxCell>
        <mxCell id="mvtlcdeYdffsvFCyJHWg-4" style="edgeStyle=orthogonalEdgeStyle;rounded=0;orthogonalLoop=1;jettySize=auto;html=1;exitX=0.5;exitY=1;exitDx=0;exitDy=0;entryX=0.5;entryY=0;entryDx=0;entryDy=0;fillColor=#008a00;strokeColor=#005700;strokeWidth=3;" edge="1" parent="1" source="mvtlcdeYdffsvFCyJHWg-6" target="mvtlcdeYdffsvFCyJHWg-9">
          <mxGeometry relative="1" as="geometry" />
        </mxCell>
        <mxCell id="mvtlcdeYdffsvFCyJHWg-5" value="&lt;span style=&quot;color: rgb(255, 255, 255); background-color: rgb(0, 0, 0);&quot;&gt;Valid Journal Numbers&lt;/span&gt;" style="edgeLabel;html=1;align=center;verticalAlign=middle;resizable=0;points=[];" vertex="1" connectable="0" parent="mvtlcdeYdffsvFCyJHWg-4">
          <mxGeometry x="-0.2" relative="1" as="geometry">
            <mxPoint as="offset" />
          </mxGeometry>
        </mxCell>
        <mxCell id="mvtlcdeYdffsvFCyJHWg-13" style="edgeStyle=orthogonalEdgeStyle;rounded=0;orthogonalLoop=1;jettySize=auto;html=1;exitX=1;exitY=0.5;exitDx=0;exitDy=0;strokeColor=#FF0000;strokeWidth=3;entryX=0.5;entryY=0;entryDx=0;entryDy=0;entryPerimeter=0;" edge="1" parent="1" source="mvtlcdeYdffsvFCyJHWg-6" target="mvtlcdeYdffsvFCyJHWg-15">
          <mxGeometry relative="1" as="geometry">
            <mxPoint x="1550" y="400" as="targetPoint" />
          </mxGeometry>
        </mxCell>
        <mxCell id="mvtlcdeYdffsvFCyJHWg-14" value="&lt;span style=&quot;color: rgb(255, 255, 255); background-color: rgb(0, 0, 0);&quot;&gt;Invalid Journal Numbers&lt;/span&gt;" style="edgeLabel;html=1;align=center;verticalAlign=middle;resizable=0;points=[];" vertex="1" connectable="0" parent="mvtlcdeYdffsvFCyJHWg-13">
          <mxGeometry x="-0.106" y="1" relative="1" as="geometry">
            <mxPoint x="-52" y="1" as="offset" />
          </mxGeometry>
        </mxCell>
        <mxCell id="mvtlcdeYdffsvFCyJHWg-6" value="&lt;font style=&quot;font-size: 18px;&quot;&gt;Choosing&amp;nbsp;&lt;/font&gt;&lt;div&gt;&lt;font style=&quot;font-size: 18px;&quot;&gt;Journal&lt;/font&gt;&lt;/div&gt;" style="html=1;overflow=block;blockSpacing=1;whiteSpace=wrap;rhombus;fontSize=16.7;fontColor=#ffffff;spacing=3.8;strokeColor=#006EAF;rounded=1;absoluteArcSize=1;arcSize=9;fillColor=#1ba1e2;strokeWidth=NaN;lucidId=x_avSaIK2IV_;" vertex="1" parent="1">
          <mxGeometry x="1194" y="340" width="162.2" height="122" as="geometry" />
        </mxCell>
        <mxCell id="mvtlcdeYdffsvFCyJHWg-9" value="Selected Journal&lt;div&gt;Deleted from Database&lt;/div&gt;" style="html=1;overflow=block;blockSpacing=1;whiteSpace=wrap;fontSize=17;spacing=3.8;strokeColor=#006EAF;rounded=1;absoluteArcSize=1;arcSize=9;fillColor=#1ba1e2;strokeWidth=NaN;lucidId=xdbvFR-ZrNtJ;fontColor=#ffffff;" vertex="1" parent="1">
          <mxGeometry x="1206.6" y="542" width="137" height="90" as="geometry" />
        </mxCell>
        <mxCell id="mvtlcdeYdffsvFCyJHWg-10" value="Journal&lt;div&gt;Data&lt;/div&gt;" style="strokeWidth=2;html=1;shape=mxgraph.flowchart.database;whiteSpace=wrap;" vertex="1" parent="1">
          <mxGeometry x="1229.6" y="683" width="91" height="100" as="geometry" />
        </mxCell>
        <mxCell id="mvtlcdeYdffsvFCyJHWg-11" style="edgeStyle=orthogonalEdgeStyle;rounded=0;orthogonalLoop=1;jettySize=auto;html=1;exitX=0.5;exitY=1;exitDx=0;exitDy=0;entryX=0.5;entryY=0;entryDx=0;entryDy=0;entryPerimeter=0;strokeColor=#FFFFFF;strokeWidth=3;" edge="1" parent="1" source="mvtlcdeYdffsvFCyJHWg-9" target="mvtlcdeYdffsvFCyJHWg-10">
          <mxGeometry relative="1" as="geometry" />
        </mxCell>
        <mxCell id="mvtlcdeYdffsvFCyJHWg-15" value="&lt;span style=&quot;color: rgb(255, 255, 255); font-size: 17px; text-wrap: wrap;&quot;&gt;Main Menu&lt;/span&gt;" style="verticalLabelPosition=middle;verticalAlign=middle;html=1;shape=mxgraph.flowchart.on-page_reference;fillColor=none;strokeColor=#FFFFFF;strokeWidth=10;labelPosition=center;align=center;" vertex="1" parent="1">
          <mxGeometry x="1520" y="531.43" width="110" height="110" as="geometry" />
        </mxCell>
        <mxCell id="mvtlcdeYdffsvFCyJHWg-16" style="edgeStyle=orthogonalEdgeStyle;rounded=0;orthogonalLoop=1;jettySize=auto;html=1;exitX=1;exitY=0.5;exitDx=0;exitDy=0;entryX=0;entryY=0.5;entryDx=0;entryDy=0;entryPerimeter=0;strokeColor=#FF0000;strokeWidth=3;" edge="1" parent="1" source="mvtlcdeYdffsvFCyJHWg-9" target="mvtlcdeYdffsvFCyJHWg-15">
          <mxGeometry relative="1" as="geometry" />
        </mxCell>
        <mxCell id="mvtlcdeYdffsvFCyJHWg-17" value="&lt;span style=&quot;color: rgb(255, 255, 255); background-color: rgb(0, 0, 0);&quot;&gt;End of Function&lt;/span&gt;" style="edgeLabel;html=1;align=center;verticalAlign=middle;resizable=0;points=[];" vertex="1" connectable="0" parent="mvtlcdeYdffsvFCyJHWg-16">
          <mxGeometry x="-0.2214" relative="1" as="geometry">
            <mxPoint as="offset" />
          </mxGeometry>
        </mxCell>
      </root>
    </mxGraphModel>
  </diagram>
</mxfile>
